# xmcd
#
# Track frame offsets:
#	150
#	9407
#	20645
#	32343
#	48372
#	58318
#	72449
#	83677
#	100089
#	111300
#	128325
#
# Disc length: 1893 seconds
#
# Revision: 1
# Processed by: cddbd v1.5.2PL0 Copyright (c) Steve Scherf et al.
# Submitted via: audiograbber 1.83.01
#
DISCID=8507630b
DTITLE=John Hager - October Road
DYEAR=1997
DGENRE=Country
TTITLE0=If You´re Gonna Rok
TTITLE1=You Baby You
TTITLE2=Big Tom
TTITLE3=Last Time With You
TTITLE4=Doggone Your Heart
TTITLE5=Love Of My Girl
TTITLE6=Here You Are Again
TTITLE7=Kitchin Cajun Family Band
TTITLE8=Front Porch Love
TTITLE9=Blue In Bowling Green
TTITLE10=American Kids
EXTD=
EXTT0=
EXTT1=
EXTT2=
EXTT3=
EXTT4=
EXTT5=
EXTT6=
EXTT7=
EXTT8=
EXTT9=
EXTT10=
PLAYORDER=
